<svg id="Layer_1" data-name="Layer 1" xmlns="http://www.w3.org/2000/svg" viewBox="0 0 360 360"><defs><style>.cls-1{isolation:isolate;}.cls-2{fill:#297fca;}</style></defs><title>Artboard 1</title><g class="cls-1"><path class="cls-2" d="M50.88,186.65h1.58V170.1H50.88v-1.78h6a10.84,10.84,0,0,1,3.91.7A9.53,9.53,0,0,1,64,171a9.68,9.68,0,0,1,2.18,3.18,10.4,10.4,0,0,1,.8,4.18,11,11,0,0,1-.59,3.48,8.93,8.93,0,0,1-1.91,3.23,10.07,10.07,0,0,1-3.43,2.38,12.74,12.74,0,0,1-5.16.93H50.88Zm3.36-16.55v16.55h2.24a9.7,9.7,0,0,0,3.66-.66,8.36,8.36,0,0,0,2.76-1.77,7.54,7.54,0,0,0,1.74-2.62,9.07,9.07,0,0,0-.06-6.65,7.63,7.63,0,0,0-1.81-2.61,8.12,8.12,0,0,0-2.7-1.66,9.29,9.29,0,0,0-3.3-.58Z"/><path class="cls-2" d="M75.07,186.74h2.24V170.1H75.07v-1.78h6.35v1.78H79.09v16.64h2.33v1.7H75.07Z"/><path class="cls-2" d="M89.29,186v-3.19h1.78v2.56a7,7,0,0,0,1.86,1.12,6.39,6.39,0,0,0,2.51.46,5.22,5.22,0,0,0,1.64-.26,4.31,4.31,0,0,0,1.38-.75,3.73,3.73,0,0,0,1-1.22,3.61,3.61,0,0,0,.37-1.65,3.77,3.77,0,0,0-.7-2.44,4.7,4.7,0,0,0-1.78-1.34,14.74,14.74,0,0,0-2.33-.79,12.05,12.05,0,0,1-2.34-.85,5.2,5.2,0,0,1-1.82-1.45,4.4,4.4,0,0,1-.79-2.64,6.26,6.26,0,0,1,.24-1.91,4.55,4.55,0,0,1,.92-1.72,4.9,4.9,0,0,1,1.7-1.25,6.07,6.07,0,0,1,2.57-.49,11.26,11.26,0,0,1,2.3.27,6.24,6.24,0,0,1,2.59,1.31v3H98.58v-2.05a5.24,5.24,0,0,0-1.34-.51,7.5,7.5,0,0,0-1.79-.2,4,4,0,0,0-1.6.3,3.17,3.17,0,0,0-1.8,1.91,4,4,0,0,0-.23,1.35,2.45,2.45,0,0,0,.72,1.91,5.61,5.61,0,0,0,1.8,1.07q1.08.41,2.34.76a9.51,9.51,0,0,1,2.36,1,5.59,5.59,0,0,1,1.82,1.75,5.44,5.44,0,0,1,.73,3,5.52,5.52,0,0,1-.47,2.33,5.33,5.33,0,0,1-1.29,1.77,5.69,5.69,0,0,1-1.91,1.12,6.9,6.9,0,0,1-2.33.39,9.14,9.14,0,0,1-2.1-.23,9,9,0,0,1-1.8-.62,8.42,8.42,0,0,1-1.44-.85A4.27,4.27,0,0,1,89.29,186Z"/><path class="cls-2" d="M113.92,186.74h2.41V170.1H111v2.64h-1.69v-4.42h15.89v4.42h-1.78V170.1h-5.26v16.64h2.18v1.7h-6.38Z"/><path class="cls-2" d="M133.2,186.74h2.24V170.1H133.2v-1.78h6.35v1.78h-2.33v16.64h2.33v1.7H133.2Z"/><path class="cls-2" d="M147.62,186.74h1.78V170.1h-1.78v-1.78h5.95v1.78h-2.39v16.64h9.08V184H162v4.42H147.62Z"/><path class="cls-2" d="M170,186.74h1.78V170.1H170v-1.78H176v1.78h-2.39v16.64h9.08V184h1.7v4.42H170Z"/><path class="cls-2" d="M190.42,186.74h2.28q2-4.88,4.08-9.67t4.11-9.67l4.08,9.67,4.08,9.67h2.31v1.7h-5.95v-1.7h1.85q-.72-1.67-1.39-3.3t-1.39-3.3H197.3q-.72,1.67-1.41,3.3t-1.41,3.3h1.91v1.7h-6Zm10.73-14.48-.29-.89a.91.91,0,0,0-.06.2,1.69,1.69,0,0,1-.09.29l-.11.4c-.1.25-.24.61-.45,1.08l-.66,1.57-.75,1.8-.73,1.74h5.75Z"/><path class="cls-2" d="M218.41,186.74h1.52V170.1h-1.52v-1.78h6.44a10.23,10.23,0,0,1,2.51.29,5.55,5.55,0,0,1,2,.89,4,4,0,0,1,1.26,1.57,5.43,5.43,0,0,1,.45,2.29,5.73,5.73,0,0,1-.86,3.14,4.35,4.35,0,0,1-2.64,1.84,6,6,0,0,1,1.59.57,5.11,5.11,0,0,1,1.35,1,4.74,4.74,0,0,1,1.28,3.32,4.58,4.58,0,0,1-.53,2.25,4.89,4.89,0,0,1-1.42,1.6,6.5,6.5,0,0,1-2,1,8.61,8.61,0,0,1-2.38.33h-7Zm3.3-16.64v7.36h3.46a4.07,4.07,0,0,0,3-1.07,3.71,3.71,0,0,0,1.1-2.78,3.06,3.06,0,0,0-1.15-2.69,5.1,5.1,0,0,0-3-.81Zm0,9.14v7.5h3.51a7.19,7.19,0,0,0,1.84-.23,4.65,4.65,0,0,0,1.51-.68,3.3,3.3,0,0,0,1-1.16,3.37,3.37,0,0,0,.37-1.61,3.32,3.32,0,0,0-.43-1.72,3.58,3.58,0,0,0-1.16-1.2,5.22,5.22,0,0,0-1.67-.68,8.53,8.53,0,0,0-1.91-.21Z"/><path class="cls-2" d="M237.81,186.74h2.28q2-4.88,4.08-9.67t4.11-9.67l4.08,9.67,4.08,9.67h2.31v1.7h-5.95v-1.7h1.85q-.72-1.67-1.39-3.3t-1.39-3.3H244.7q-.72,1.67-1.41,3.3t-1.41,3.3h1.91v1.7h-6Zm10.73-14.48-.29-.89a.91.91,0,0,0-.06.2,1.69,1.69,0,0,1-.09.29l-.11.4c-.1.25-.24.61-.45,1.08l-.66,1.57-.75,1.8-.73,1.74h5.75Z"/><path class="cls-2" d="M265.6,186v-3.19h1.78v2.56a7,7,0,0,0,1.86,1.12,6.39,6.39,0,0,0,2.51.46,5.23,5.23,0,0,0,1.64-.26,4.31,4.31,0,0,0,1.38-.75,3.71,3.71,0,0,0,1-1.22,3.6,3.6,0,0,0,.37-1.65,3.77,3.77,0,0,0-.7-2.44,4.71,4.71,0,0,0-1.78-1.34,14.73,14.73,0,0,0-2.33-.79,12.09,12.09,0,0,1-2.34-.85,5.21,5.21,0,0,1-1.82-1.45,4.4,4.4,0,0,1-.79-2.64,6.24,6.24,0,0,1,.24-1.91,4.55,4.55,0,0,1,.92-1.72,4.91,4.91,0,0,1,1.7-1.25,6.07,6.07,0,0,1,2.57-.49,11.27,11.27,0,0,1,2.3.27,6.25,6.25,0,0,1,2.59,1.31v3h-1.78v-2.05a5.24,5.24,0,0,0-1.34-.51,7.5,7.5,0,0,0-1.79-.2,4,4,0,0,0-1.59.3,3.17,3.17,0,0,0-1.8,1.91,4,4,0,0,0-.23,1.35,2.45,2.45,0,0,0,.72,1.91,5.61,5.61,0,0,0,1.8,1.07q1.08.41,2.34.76a9.52,9.52,0,0,1,2.36,1,5.6,5.6,0,0,1,1.83,1.75,5.44,5.44,0,0,1,.73,3,5.52,5.52,0,0,1-.47,2.33,5.31,5.31,0,0,1-1.29,1.77,5.69,5.69,0,0,1-1.91,1.12,6.9,6.9,0,0,1-2.33.39,9.12,9.12,0,0,1-2.1-.23,9,9,0,0,1-1.8-.62,8.4,8.4,0,0,1-1.44-.85A4.25,4.25,0,0,1,265.6,186Z"/><path class="cls-2" d="M285.57,186.74h1.84V170.1h-1.84v-1.78h14v4.42h-1.78V170.1h-8.59v7.36h9.25v1.7h-9.25v7.59h9V184H300v4.42h-14.4Z"/></g></svg>