<?xml version="1.0" encoding="utf-8"?>
<!-- Generator: Adobe Illustrator 21.0.2, SVG Export Plug-In . SVG Version: 6.00 Build 0)  -->
<svg version="1.1" id="Layer_1" xmlns="http://www.w3.org/2000/svg" xmlns:xlink="http://www.w3.org/1999/xlink" x="0px" y="0px"
	 viewBox="0 0 360 360" style="enable-background:new 0 0 360 360;" xml:space="preserve">
<style type="text/css">
	.st0{enable-background:new    ;}
	.st1{fill:#297FCA;}
</style>
<g class="st0">
	<path class="st1" d="M50.9,186.7h1.6v-16.6h-1.6v-1.8h6c1.4,0,2.7,0.2,3.9,0.7c1.2,0.5,2.3,1.1,3.2,2c0.9,0.9,1.6,1.9,2.2,3.2
		c0.5,1.2,0.8,2.6,0.8,4.2c0,1.1-0.2,2.3-0.6,3.5c-0.4,1.2-1,2.3-1.9,3.2c-0.9,1-2,1.8-3.4,2.4c-1.4,0.6-3.1,0.9-5.2,0.9h-5.1V186.7
		z M54.2,170.1v16.6h2.2c1.4,0,2.6-0.2,3.7-0.7c1.1-0.4,2-1,2.8-1.8c0.8-0.7,1.3-1.6,1.7-2.6c0.4-1,0.6-2.1,0.6-3.2
		c0-1.3-0.2-2.4-0.7-3.4c-0.4-1-1-1.9-1.8-2.6c-0.8-0.7-1.7-1.3-2.7-1.7c-1-0.4-2.1-0.6-3.3-0.6H54.2z"/>
	<path class="st1" d="M75.1,186.7h2.2v-16.6h-2.2v-1.8h6.3v1.8h-2.3v16.6h2.3v1.7h-6.3V186.7z"/>
	<path class="st1" d="M89.3,186v-3.2h1.8v2.6c0.5,0.4,1.1,0.8,1.9,1.1s1.6,0.5,2.5,0.5c0.6,0,1.1-0.1,1.6-0.3c0.5-0.2,1-0.4,1.4-0.7
		c0.4-0.3,0.7-0.7,1-1.2c0.2-0.5,0.4-1,0.4-1.7c0-1.1-0.2-1.9-0.7-2.4s-1.1-1-1.8-1.3c-0.7-0.3-1.5-0.6-2.3-0.8
		c-0.8-0.2-1.6-0.5-2.3-0.8c-0.7-0.4-1.3-0.8-1.8-1.5c-0.5-0.6-0.8-1.5-0.8-2.6c0-0.6,0.1-1.3,0.2-1.9c0.2-0.6,0.5-1.2,0.9-1.7
		c0.4-0.5,1-0.9,1.7-1.2c0.7-0.3,1.6-0.5,2.6-0.5c0.7,0,1.4,0.1,2.3,0.3s1.7,0.6,2.6,1.3v3h-1.8v-2.1c-0.4-0.2-0.8-0.4-1.3-0.5
		s-1.1-0.2-1.8-0.2c-0.6,0-1.1,0.1-1.6,0.3c-0.5,0.2-0.8,0.5-1.1,0.8c-0.3,0.3-0.5,0.7-0.7,1.1s-0.2,0.9-0.2,1.4
		c0,0.8,0.2,1.5,0.7,1.9c0.5,0.4,1.1,0.8,1.8,1.1c0.7,0.3,1.5,0.5,2.3,0.8c0.8,0.2,1.6,0.6,2.4,1s1.3,1,1.8,1.8s0.7,1.7,0.7,3
		c0,0.9-0.2,1.6-0.5,2.3c-0.3,0.7-0.7,1.3-1.3,1.8c-0.5,0.5-1.2,0.9-1.9,1.1s-1.5,0.4-2.3,0.4c-0.7,0-1.4-0.1-2.1-0.2
		c-0.7-0.2-1.2-0.4-1.8-0.6c-0.5-0.3-1-0.5-1.4-0.8C89.8,186.7,89.5,186.3,89.3,186z"/>
	<path class="st1" d="M113.9,186.7h2.4v-16.6H111v2.6h-1.7v-4.4h15.9v4.4h-1.8v-2.6h-5.3v16.6h2.2v1.7h-6.4V186.7z"/>
	<path class="st1" d="M133.2,186.7h2.2v-16.6h-2.2v-1.8h6.3v1.8h-2.3v16.6h2.3v1.7h-6.3V186.7z"/>
	<path class="st1" d="M147.6,186.7h1.8v-16.6h-1.8v-1.8h5.9v1.8h-2.4v16.6h9.1V184h1.7v4.4h-14.3V186.7z"/>
	<path class="st1" d="M170,186.7h1.8v-16.6H170v-1.8h5.9v1.8h-2.4v16.6h9.1V184h1.7v4.4H170V186.7z"/>
	<path class="st1" d="M190.4,186.7h2.3c1.4-3.3,2.7-6.5,4.1-9.7c1.4-3.2,2.7-6.4,4.1-9.7c1.4,3.3,2.7,6.5,4.1,9.7
		c1.3,3.2,2.7,6.4,4.1,9.7h2.3v1.7h-5.9v-1.7h1.9c-0.5-1.1-0.9-2.2-1.4-3.3c-0.5-1.1-0.9-2.2-1.4-3.3h-7.2c-0.5,1.1-0.9,2.2-1.4,3.3
		c-0.5,1.1-0.9,2.2-1.4,3.3h1.9v1.7h-6V186.7z M201.1,172.3l-0.3-0.9c0,0,0,0.1-0.1,0.2c0,0.1,0,0.2-0.1,0.3l-0.1,0.4
		c-0.1,0.2-0.2,0.6-0.4,1.1s-0.4,1-0.7,1.6c-0.2,0.6-0.5,1.2-0.7,1.8s-0.5,1.2-0.7,1.7h5.7L201.1,172.3z"/>
	<path class="st1" d="M218.4,186.7h1.5v-16.6h-1.5v-1.8h6.4c0.9,0,1.8,0.1,2.5,0.3c0.8,0.2,1.4,0.5,2,0.9s1,0.9,1.3,1.6
		c0.3,0.6,0.4,1.4,0.4,2.3c0,1.2-0.3,2.2-0.9,3.1c-0.6,0.9-1.5,1.5-2.6,1.8c0.6,0.1,1.1,0.3,1.6,0.6c0.5,0.3,1,0.6,1.4,1
		c0.4,0.4,0.7,0.9,0.9,1.5s0.3,1.2,0.3,1.9c0,0.9-0.2,1.6-0.5,2.2c-0.4,0.6-0.8,1.2-1.4,1.6s-1.3,0.8-2,1s-1.6,0.3-2.4,0.3h-7V186.7
		z M221.7,170.1v7.4h3.5c1.2,0,2.2-0.4,3-1.1c0.7-0.7,1.1-1.6,1.1-2.8c0-1.3-0.4-2.2-1.2-2.7c-0.8-0.5-1.8-0.8-3-0.8H221.7z
		 M221.7,179.2v7.5h3.5c0.7,0,1.3-0.1,1.8-0.2c0.6-0.2,1.1-0.4,1.5-0.7c0.4-0.3,0.8-0.7,1-1.2s0.4-1,0.4-1.6c0-0.7-0.1-1.2-0.4-1.7
		c-0.3-0.5-0.7-0.9-1.2-1.2c-0.5-0.3-1-0.5-1.7-0.7s-1.3-0.2-1.9-0.2H221.7z"/>
	<path class="st1" d="M237.8,186.7h2.3c1.4-3.3,2.7-6.5,4.1-9.7c1.4-3.2,2.7-6.4,4.1-9.7c1.4,3.3,2.7,6.5,4.1,9.7
		c1.3,3.2,2.7,6.4,4.1,9.7h2.3v1.7h-5.9v-1.7h1.9c-0.5-1.1-0.9-2.2-1.4-3.3c-0.5-1.1-0.9-2.2-1.4-3.3h-7.2c-0.5,1.1-0.9,2.2-1.4,3.3
		c-0.5,1.1-0.9,2.2-1.4,3.3h1.9v1.7h-6V186.7z M248.5,172.3l-0.3-0.9c0,0,0,0.1-0.1,0.2c0,0.1,0,0.2-0.1,0.3l-0.1,0.4
		c-0.1,0.2-0.2,0.6-0.4,1.1s-0.4,1-0.7,1.6c-0.2,0.6-0.5,1.2-0.7,1.8s-0.5,1.2-0.7,1.7h5.7L248.5,172.3z"/>
	<path class="st1" d="M265.6,186v-3.2h1.8v2.6c0.5,0.4,1.1,0.8,1.9,1.1c0.7,0.3,1.6,0.5,2.5,0.5c0.6,0,1.1-0.1,1.6-0.3
		c0.5-0.2,1-0.4,1.4-0.7c0.4-0.3,0.7-0.7,1-1.2c0.2-0.5,0.4-1,0.4-1.7c0-1.1-0.2-1.9-0.7-2.4c-0.5-0.6-1.1-1-1.8-1.3
		c-0.7-0.3-1.5-0.6-2.3-0.8c-0.8-0.2-1.6-0.5-2.3-0.8c-0.7-0.4-1.3-0.8-1.8-1.5c-0.5-0.6-0.8-1.5-0.8-2.6c0-0.6,0.1-1.3,0.2-1.9
		c0.2-0.6,0.5-1.2,0.9-1.7c0.4-0.5,1-0.9,1.7-1.2c0.7-0.3,1.6-0.5,2.6-0.5c0.7,0,1.4,0.1,2.3,0.3c0.9,0.2,1.7,0.6,2.6,1.3v3h-1.8
		v-2.1c-0.4-0.2-0.8-0.4-1.3-0.5s-1.1-0.2-1.8-0.2c-0.6,0-1.1,0.1-1.6,0.3c-0.5,0.2-0.8,0.5-1.1,0.8c-0.3,0.3-0.5,0.7-0.7,1.1
		c-0.2,0.4-0.2,0.9-0.2,1.4c0,0.8,0.2,1.5,0.7,1.9c0.5,0.4,1.1,0.8,1.8,1.1c0.7,0.3,1.5,0.5,2.3,0.8s1.6,0.6,2.4,1
		c0.7,0.4,1.3,1,1.8,1.8c0.5,0.7,0.7,1.7,0.7,3c0,0.9-0.2,1.6-0.5,2.3c-0.3,0.7-0.7,1.3-1.3,1.8c-0.5,0.5-1.2,0.9-1.9,1.1
		c-0.7,0.3-1.5,0.4-2.3,0.4c-0.7,0-1.4-0.1-2.1-0.2c-0.7-0.2-1.2-0.4-1.8-0.6c-0.5-0.3-1-0.5-1.4-0.8
		C266.2,186.7,265.8,186.3,265.6,186z"/>
	<path class="st1" d="M285.6,186.7h1.8v-16.6h-1.8v-1.8h14v4.4h-1.8v-2.6h-8.6v7.4h9.3v1.7h-9.3v7.6h9V184h1.8v4.4h-14.4V186.7z"/>
</g>
</svg>
